<?xml version="1.0" encoding="UTF-8"?>
<!DOCTYPE svg PUBLIC "-//W3C//DTD SVG 1.1//EN" "http://www.w3.org/Graphics/SVG/1.1/DTD/svg11.dtd">
<svg xmlns="http://www.w3.org/2000/svg" version="1.1" width="591px" height="659px" style="shape-rendering:geometricPrecision; text-rendering:geometricPrecision; image-rendering:optimizeQuality; fill-rule:evenodd; clip-rule:evenodd" xmlns:xlink="http://www.w3.org/1999/xlink">
<g><path style="opacity:1" fill="#e6e6e6" d="M 9.5,-0.5 C 178.833,-0.5 348.167,-0.5 517.5,-0.5C 517.5,168.833 517.5,338.167 517.5,507.5C 494.167,507.5 470.833,507.5 447.5,507.5C 445.96,505.162 445.294,502.495 445.5,499.5C 466.833,499.5 488.167,499.5 509.5,499.5C 509.5,335.5 509.5,171.5 509.5,7.5C 345.5,7.5 181.5,7.5 17.5,7.5C 17.1676,70.3356 17.5009,133.002 18.5,195.5C 15.2338,200.37 12.2338,205.37 9.5,210.5C 9.5,140.167 9.5,69.8333 9.5,-0.5 Z"/></g>
<g><path style="opacity:1" fill="#fefefe" d="M 445.5,499.5 C 440.305,478.359 435.805,457.026 432,435.5C 429.541,427.915 426.041,420.915 421.5,414.5C 418.986,403.444 416.319,392.444 413.5,381.5C 414.472,380.601 415.138,379.434 415.5,378C 414.752,371.416 413.752,364.916 412.5,358.5C 412.5,355.5 412.5,352.5 412.5,349.5C 425.783,345.049 433.45,335.882 435.5,322C 435.385,317.32 433.885,313.153 431,309.5C 424.667,304.833 418.333,300.167 412,295.5C 408.464,288.958 406.631,281.958 406.5,274.5C 413.5,274.5 420.5,274.5 427.5,274.5C 427.5,272.167 427.5,269.833 427.5,267.5C 419.5,267.5 411.5,267.5 403.5,267.5C 399.614,262.635 394.614,259.302 388.5,257.5C 401.323,256.505 414.323,256.171 427.5,256.5C 427.5,254.167 427.5,251.833 427.5,249.5C 354.167,249.5 280.833,249.5 207.5,249.5C 200.824,194.989 170.49,162.489 116.5,152C 75.5449,148.32 42.8782,162.82 18.5,195.5C 17.5009,133.002 17.1676,70.3356 17.5,7.5C 181.5,7.5 345.5,7.5 509.5,7.5C 509.5,171.5 509.5,335.5 509.5,499.5C 488.167,499.5 466.833,499.5 445.5,499.5 Z"/></g>
<g><path style="opacity:1" fill="#fdfcfd" d="M 122.5,133.5 C 117.777,132.312 113.111,130.812 108.5,129C 107.577,126.959 107.244,124.792 107.5,122.5C 100.439,122.226 93.4393,121.726 86.5,121C 85.5,123.333 84.5,125.667 83.5,128C 79.4095,129.697 75.2429,131.197 71,132.5C 68.3478,130.68 65.8478,128.68 63.5,126.5C 54.7232,112.298 53.2232,97.2979 59,81.5C 71.8078,60.3399 89.9745,53.8399 113.5,62C 138.394,76.3543 144.561,96.5209 132,122.5C 128.998,126.334 125.831,130 122.5,133.5 Z"/></g>
<g><path style="opacity:1" fill="#504e65" d="M 123.5,134.5 C 122.833,134.5 122.5,134.167 122.5,133.5C 125.831,130 128.998,126.334 132,122.5C 144.561,96.5209 138.394,76.3543 113.5,62C 89.9745,53.8399 71.8078,60.3399 59,81.5C 53.2232,97.2979 54.7232,112.298 63.5,126.5C 63.5,127.167 63.1667,127.5 62.5,127.5C 51.0201,112.205 49.5201,95.8715 58,78.5C 69.4278,60.8734 85.5945,53.7067 106.5,57C 133.484,66.4605 144.317,85.2939 139,113.5C 136.128,121.413 131.628,128.247 125.5,134C 124.906,134.464 124.239,134.631 123.5,134.5 Z"/></g>
<g><path style="opacity:1" fill="#e6e6e6" d="M 207.5,78.5 C 280.833,78.5 354.167,78.5 427.5,78.5C 427.5,80.8333 427.5,83.1667 427.5,85.5C 354.167,85.5 280.833,85.5 207.5,85.5C 207.5,83.1667 207.5,80.8333 207.5,78.5 Z"/></g>
<g><path style="opacity:1" fill="#363346" d="M 99.5,80.5 C 99.8039,81.1499 100.137,81.8165 100.5,82.5C 103.187,83.2604 105.853,83.9271 108.5,84.5C 109.398,85.1577 110.398,85.8243 111.5,86.5C 109.15,87.7739 109.317,89.1073 112,90.5C 112.901,95.7746 112.401,100.775 110.5,105.5C 109.597,102.609 109.264,99.6085 109.5,96.5C 102.846,97.3069 96.1796,97.4735 89.5,97C 88.0692,96.5348 86.9025,95.7014 86,94.5C 84.8608,97.8231 83.0275,100.49 80.5,102.5C 79.8099,98.5104 79.6432,94.5104 80,90.5C 82.218,88.5585 83.8847,86.2252 85,83.5C 85.9025,82.2986 87.0692,81.4652 88.5,81C 92.1516,80.5014 95.8183,80.3347 99.5,80.5 Z"/></g>
<g><path style="opacity:1" fill="#7d7c88" d="M 99.5,80.5 C 102.032,81.7082 105.032,83.0415 108.5,84.5C 105.853,83.9271 103.187,83.2604 100.5,82.5C 100.137,81.8165 99.8039,81.1499 99.5,80.5 Z"/></g>
<g><path style="opacity:1" fill="#fdb7b7" d="M 110.5,105.5 C 107.177,114.998 100.511,118.498 90.5,116C 85.0816,113.077 81.7483,108.577 80.5,102.5C 83.0275,100.49 84.8608,97.8231 86,94.5C 86.9025,95.7014 88.0692,96.5348 89.5,97C 96.1796,97.4735 102.846,97.3069 109.5,96.5C 109.264,99.6085 109.597,102.609 110.5,105.5 Z"/></g>
<g><path style="opacity:1" fill="#e5e5e5" d="M 207.5,96.5 C 280.833,96.5 354.167,96.5 427.5,96.5C 427.5,98.8333 427.5,101.167 427.5,103.5C 354.167,103.5 280.833,103.5 207.5,103.5C 207.5,101.167 207.5,98.8333 207.5,96.5 Z"/></g>
<g><path style="opacity:1" fill="#e5e5e5" d="M 207.5,114.5 C 280.833,114.5 354.167,114.5 427.5,114.5C 427.5,116.833 427.5,119.167 427.5,121.5C 354.167,121.5 280.833,121.5 207.5,121.5C 207.5,119.167 207.5,116.833 207.5,114.5 Z"/></g>
<g><path style="opacity:1" fill="#424059" d="M 122.5,133.5 C 122.5,134.167 122.833,134.5 123.5,134.5C 107.707,146.259 91.0406,147.426 73.5,138C 69.3319,134.998 65.6652,131.498 62.5,127.5C 63.1667,127.5 63.5,127.167 63.5,126.5C 65.8478,128.68 68.3478,130.68 71,132.5C 75.2429,131.197 79.4095,129.697 83.5,128C 84.5,125.667 85.5,123.333 86.5,121C 93.4393,121.726 100.439,122.226 107.5,122.5C 107.244,124.792 107.577,126.959 108.5,129C 113.111,130.812 117.777,132.312 122.5,133.5 Z"/></g>
<g><path style="opacity:0.998" fill="#403e57" d="M 207.5,249.5 C 207.5,251.833 207.5,254.167 207.5,256.5C 207.5,259.167 207.5,261.833 207.5,264.5C 206.566,265.568 206.232,266.901 206.5,268.5C 204.25,284.421 198.75,299.088 190,312.5C 189.333,313.5 189.333,314.5 190,315.5C 217.254,338.865 244.754,361.865 272.5,384.5C 275.474,387.138 278.474,389.805 281.5,392.5C 283.473,393.806 285.139,395.473 286.5,397.5C 277.822,398.177 273.822,402.844 274.5,411.5C 273.5,410.833 272.5,410.167 271.5,409.5C 268.526,406.862 265.526,404.195 262.5,401.5C 258.317,397.916 253.984,394.582 249.5,391.5C 247.12,388.119 244.12,385.453 240.5,383.5C 219.504,365.177 198.171,347.177 176.5,329.5C 143.103,358.763 105.436,365.929 63.5,351C 45.0246,343.015 30.0246,330.849 18.5,314.5C 15.2338,309.63 12.2338,304.63 9.5,299.5C 4.61802,289.302 1.28469,278.635 -0.5,267.5C -0.5,259.167 -0.5,250.833 -0.5,242.5C 1.28547,231.361 4.6188,220.694 9.5,210.5C 12.2338,205.37 15.2338,200.37 18.5,195.5C 42.8782,162.82 75.5449,148.32 116.5,152C 170.49,162.489 200.824,194.989 207.5,249.5 Z"/></g>
<g><path style="opacity:1" fill="#fdfdfd" d="M 153.5,313.5 C 130.969,330.591 105.969,335.424 78.5,328C 39.642,311.802 22.142,282.635 26,240.5C 27.8066,232.581 30.3066,224.914 33.5,217.5C 58.8603,178.313 93.527,167.146 137.5,184C 176.999,207.821 189.166,241.654 174,285.5C 168.881,296.115 162.047,305.448 153.5,313.5 Z"/></g>
<g><path style="opacity:1" fill="#4e4c63" d="M 90.5,208.5 C 115.83,207.743 132.33,219.41 140,243.5C 142.963,272.85 130.13,290.684 101.5,297C 75.8208,297.568 59.6541,285.402 53,260.5C 51.5477,233.062 64.0477,215.728 90.5,208.5 Z"/></g>
<g><path style="opacity:1" fill="#fbfbfb" d="M 122.5,285.5 C 120.861,283.194 118.861,281.194 116.5,279.5C 114.5,278.167 112.5,278.167 110.5,279.5C 106.652,279.319 104.985,277.319 105.5,273.5C 105.585,271.667 106.252,270.334 107.5,269.5C 110.142,272.034 112.976,272.034 116,269.5C 118.364,265.526 117.864,262.026 114.5,259C 115.094,258.536 115.761,258.369 116.5,258.5C 115.909,257.849 115.243,257.182 114.5,256.5C 121.683,243.548 118.683,233.715 105.5,227C 97.9385,224.358 90.9385,225.358 84.5,230C 82.8588,231.129 81.8588,232.629 81.5,234.5C 78.1922,238.097 76.8588,242.431 77.5,247.5C 78.0305,249.924 78.8638,252.257 80,254.5C 80.3826,253.944 80.8826,253.611 81.5,253.5C 84.0165,258.689 88.0165,262.022 93.5,263.5C 95.9479,264.473 98.6146,264.806 101.5,264.5C 104.142,264.488 105.475,265.821 105.5,268.5C 99.5195,269.11 93.8528,268.11 88.5,265.5C 88.3078,271.943 84.9745,274.61 78.5,273.5C 77.1825,273.179 75.8492,272.846 74.5,272.5C 73.2867,272.747 72.62,273.414 72.5,274.5C 68.2536,273.761 65.587,275.427 64.5,279.5C 51.0732,261.452 51.2398,243.452 65,225.5C 82.6688,208.904 101.835,207.071 122.5,220C 140.894,237.437 143.394,256.937 130,278.5C 127.63,281.039 125.13,283.372 122.5,285.5 Z"/></g>
<g><path style="opacity:1" fill="#2e2d3e" d="M 33.5,217.5 C 30.3066,224.914 27.8066,232.581 26,240.5C 22.142,282.635 39.642,311.802 78.5,328C 105.969,335.424 130.969,330.591 153.5,313.5C 153.938,313.435 154.272,313.601 154.5,314C 128.724,340.623 98.3909,347.623 63.5,335C 26.7334,315.736 11.9,285.569 19,244.5C 21.9109,234.265 26.5775,224.932 33,216.5C 33.3988,216.728 33.5654,217.062 33.5,217.5 Z"/></g>
<g><path style="opacity:1" fill="#333144" d="M 116.5,258.5 C 115.761,258.369 115.094,258.536 114.5,259C 117.864,262.026 118.364,265.526 116,269.5C 112.976,272.034 110.142,272.034 107.5,269.5C 107.158,268.662 106.492,268.328 105.5,268.5C 105.475,265.821 104.142,264.488 101.5,264.5C 108.428,261.86 112.095,256.693 112.5,249C 111.14,246.36 109.807,246.193 108.5,248.5C 107.808,247.975 107.308,247.308 107,246.5C 103.164,248.389 98.9971,249.055 94.5,248.5C 94.6495,247.448 94.4828,246.448 94,245.5C 92.7365,247.607 90.9032,248.607 88.5,248.5C 87.7928,245.049 86.7928,245.382 85.5,249.5C 85.7612,255.687 88.4279,260.353 93.5,263.5C 88.0165,262.022 84.0165,258.689 81.5,253.5C 80.2066,250.321 79.5399,246.988 79.5,243.5C 80.1,240.702 81.1,238.035 82.5,235.5C 82.3764,234.893 82.0431,234.56 81.5,234.5C 81.8588,232.629 82.8588,231.129 84.5,230C 90.9385,225.358 97.9385,224.358 105.5,227C 118.683,233.715 121.683,243.548 114.5,256.5C 115.243,257.182 115.909,257.849 116.5,258.5 Z"/></g>
<g><path style="opacity:1" fill="#e6e6e6" d="M 207.5,231.5 C 280.833,231.5 354.167,231.5 427.5,231.5C 427.5,233.833 427.5,236.167 427.5,238.5C 354.167,238.5 280.833,238.5 207.5,238.5C 207.5,236.167 207.5,233.833 207.5,231.5 Z"/></g>
<g><path style="opacity:1" fill="#656573" d="M 81.5,234.5 C 82.0431,234.56 82.3764,234.893 82.5,235.5C 81.1,238.035 80.1,240.702 79.5,243.5C 78.8333,244.833 78.1667,246.167 77.5,247.5C 76.8588,242.431 78.1922,238.097 81.5,234.5 Z"/></g>
<g><path style="opacity:1" fill="#9a5e67" d="M 101.5,264.5 C 98.6146,264.806 95.9479,264.473 93.5,263.5C 88.4279,260.353 85.7612,255.687 85.5,249.5C 86.7928,245.382 87.7928,245.049 88.5,248.5C 90.9032,248.607 92.7365,247.607 94,245.5C 94.4828,246.448 94.6495,247.448 94.5,248.5C 98.9971,249.055 103.164,248.389 107,246.5C 107.308,247.308 107.808,247.975 108.5,248.5C 109.807,246.193 111.14,246.36 112.5,249C 112.095,256.693 108.428,261.86 101.5,264.5 Z"/></g>
<g><path style="opacity:1" fill="#9f9ea7" d="M 79.5,243.5 C 79.5399,246.988 80.2066,250.321 81.5,253.5C 80.8826,253.611 80.3826,253.944 80,254.5C 78.8638,252.257 78.0305,249.924 77.5,247.5C 78.1667,246.167 78.8333,244.833 79.5,243.5 Z"/></g>
<g><path style="opacity:1" fill="#e5e5e5" d="M 207.5,249.5 C 280.833,249.5 354.167,249.5 427.5,249.5C 427.5,251.833 427.5,254.167 427.5,256.5C 414.323,256.171 401.323,256.505 388.5,257.5C 382.727,256.507 376.894,255.84 371,255.5C 367.599,255.331 364.432,255.998 361.5,257.5C 310.336,256.501 259.003,256.168 207.5,256.5C 207.5,254.167 207.5,251.833 207.5,249.5 Z"/></g>
<g><path style="opacity:1" fill="#302f41" d="M 388.5,257.5 C 394.614,259.302 399.614,262.635 403.5,267.5C 404.305,269.915 405.305,272.249 406.5,274.5C 406.631,281.958 408.464,288.958 412,295.5C 418.333,300.167 424.667,304.833 431,309.5C 433.885,313.153 435.385,317.32 435.5,322C 433.45,335.882 425.783,345.049 412.5,349.5C 412.5,352.5 412.5,355.5 412.5,358.5C 410.421,358.971 408.421,359.637 406.5,360.5C 406.575,357.794 406.908,355.127 407.5,352.5C 395.867,356.054 384.2,356.22 372.5,353C 369.827,351.999 367.493,350.499 365.5,348.5C 364.534,350.396 364.201,352.396 364.5,354.5C 361.706,352.181 359.872,349.181 359,345.5C 357.947,339.515 357.113,333.515 356.5,327.5C 359.818,321.535 363.151,315.535 366.5,309.5C 370.703,300.239 368.703,292.739 360.5,287C 358.26,286.023 355.927,285.523 353.5,285.5C 346.729,285.61 343.062,282.277 342.5,275.5C 344.141,271.859 346.808,269.192 350.5,267.5C 353.247,267.813 355.914,267.48 358.5,266.5C 356.929,262.642 357.929,259.642 361.5,257.5C 364.432,255.998 367.599,255.331 371,255.5C 376.894,255.84 382.727,256.507 388.5,257.5 Z"/></g>
<g><path style="opacity:1" fill="#fefefe" d="M 207.5,256.5 C 259.003,256.168 310.336,256.501 361.5,257.5C 357.929,259.642 356.929,262.642 358.5,266.5C 355.914,267.48 353.247,267.813 350.5,267.5C 302.833,267.5 255.167,267.5 207.5,267.5C 207.5,266.5 207.5,265.5 207.5,264.5C 207.5,261.833 207.5,259.167 207.5,256.5 Z"/></g>
<g><path style="opacity:1" fill="#787783" d="M 116.5,258.5 C 120.049,259.957 121.216,262.623 120,266.5C 119.632,263.435 118.465,260.768 116.5,258.5 Z"/></g>
<g><path style="opacity:1" fill="#671e1f" d="M 105.5,268.5 C 106.492,268.328 107.158,268.662 107.5,269.5C 106.252,270.334 105.585,271.667 105.5,273.5C 104.985,277.319 106.652,279.319 110.5,279.5C 110.5,283.833 110.5,288.167 110.5,292.5C 100.349,295.451 90.3488,295.118 80.5,291.5C 80.9653,285.316 80.2986,279.316 78.5,273.5C 84.9745,274.61 88.3078,271.943 88.5,265.5C 93.8528,268.11 99.5195,269.11 105.5,268.5 Z"/></g>
<g><path style="opacity:1" fill="#e5e5e5" d="M 207.5,264.5 C 207.5,265.5 207.5,266.5 207.5,267.5C 255.167,267.5 302.833,267.5 350.5,267.5C 346.808,269.192 344.141,271.859 342.5,275.5C 297.67,274.501 252.67,274.168 207.5,274.5C 207.795,272.265 207.461,270.265 206.5,268.5C 206.232,266.901 206.566,265.568 207.5,264.5 Z"/></g>
<g><path style="opacity:1" fill="#e4e4e5" d="M 403.5,267.5 C 411.5,267.5 419.5,267.5 427.5,267.5C 427.5,269.833 427.5,272.167 427.5,274.5C 420.5,274.5 413.5,274.5 406.5,274.5C 405.305,272.249 404.305,269.915 403.5,267.5 Z"/></g>
<g><path style="opacity:1" fill="#fefefe" d="M 206.5,268.5 C 207.461,270.265 207.795,272.265 207.5,274.5C 252.67,274.168 297.67,274.501 342.5,275.5C 343.062,282.277 346.729,285.61 353.5,285.5C 353.144,296.126 357.477,304.126 366.5,309.5C 363.151,315.535 359.818,321.535 356.5,327.5C 353.901,327.549 351.734,328.549 350,330.5C 345.907,347.04 341.74,363.54 337.5,380C 338.544,381.174 339.544,382.341 340.5,383.5C 340.5,383.833 340.5,384.167 340.5,384.5C 317.833,384.5 295.167,384.5 272.5,384.5C 244.754,361.865 217.254,338.865 190,315.5C 189.333,314.5 189.333,313.5 190,312.5C 198.75,299.088 204.25,284.421 206.5,268.5 Z"/></g>
<g><path style="opacity:1" fill="#332e41" d="M 78.5,273.5 C 80.2986,279.316 80.9653,285.316 80.5,291.5C 77.9684,290.404 75.6351,289.071 73.5,287.5C 74.8734,283.157 74.5401,278.824 72.5,274.5C 72.62,273.414 73.2867,272.747 74.5,272.5C 75.8492,272.846 77.1825,273.179 78.5,273.5 Z"/></g>
<g><path style="opacity:1" fill="#661f20" d="M 72.5,274.5 C 74.5401,278.824 74.8734,283.157 73.5,287.5C 69.8797,285.547 66.8797,282.881 64.5,279.5C 65.587,275.427 68.2536,273.761 72.5,274.5 Z"/></g>
<g><path style="opacity:1" fill="#302e41" d="M 116.5,279.5 C 116.5,282.833 116.5,286.167 116.5,289.5C 114.75,290.87 112.75,291.87 110.5,292.5C 110.5,288.167 110.5,283.833 110.5,279.5C 112.5,278.167 114.5,278.167 116.5,279.5 Z"/></g>
<g><path style="opacity:1" fill="#652021" d="M 116.5,279.5 C 118.861,281.194 120.861,283.194 122.5,285.5C 120.795,287.192 118.795,288.525 116.5,289.5C 116.5,286.167 116.5,282.833 116.5,279.5 Z"/></g>
<g><path style="opacity:1" fill="#fcb6b6" d="M 353.5,285.5 C 355.927,285.523 358.26,286.023 360.5,287C 368.703,292.739 370.703,300.239 366.5,309.5C 357.477,304.126 353.144,296.126 353.5,285.5 Z"/></g>
<g><path style="opacity:1" fill="#e6e6e6" d="M 9.5,299.5 C 12.2338,304.63 15.2338,309.63 18.5,314.5C 17.5009,375.998 17.1676,437.664 17.5,499.5C 123.5,499.5 229.5,499.5 335.5,499.5C 334.833,502.167 334.167,504.833 333.5,507.5C 225.5,507.5 117.5,507.5 9.5,507.5C 9.5,438.167 9.5,368.833 9.5,299.5 Z"/></g>
<g><path style="opacity:1" fill="#fefefe" d="M 18.5,314.5 C 30.0246,330.849 45.0246,343.015 63.5,351C 105.436,365.929 143.103,358.763 176.5,329.5C 198.171,347.177 219.504,365.177 240.5,383.5C 229.679,384.495 218.679,384.828 207.5,384.5C 207.5,386.833 207.5,389.167 207.5,391.5C 221.5,391.5 235.5,391.5 249.5,391.5C 253.984,394.582 258.317,397.916 262.5,401.5C 244.341,402.497 226.008,402.83 207.5,402.5C 207.5,404.833 207.5,407.167 207.5,409.5C 228.833,409.5 250.167,409.5 271.5,409.5C 272.5,410.167 273.5,410.833 274.5,411.5C 276.195,415.514 279.195,417.847 283.5,418.5C 283.5,418.833 283.5,419.167 283.5,419.5C 258.339,420.498 233.005,420.831 207.5,420.5C 207.5,422.833 207.5,425.167 207.5,427.5C 235.833,427.5 264.167,427.5 292.5,427.5C 296.625,430.453 300.625,433.619 304.5,437C 313.685,440.335 318.685,437.168 319.5,427.5C 329.833,427.5 340.167,427.5 350.5,427.5C 350.5,431.5 350.5,435.5 350.5,439.5C 346.101,459.762 341.101,479.762 335.5,499.5C 229.5,499.5 123.5,499.5 17.5,499.5C 17.1676,437.664 17.5009,375.998 18.5,314.5 Z"/></g>
<g><path style="opacity:1" fill="#403e57" d="M 356.5,327.5 C 357.113,333.515 357.947,339.515 359,345.5C 359.872,349.181 361.706,352.181 364.5,354.5C 364.833,355.167 365.167,355.833 365.5,356.5C 365.5,369.5 365.5,382.5 365.5,395.5C 377.817,394.086 390.15,392.752 402.5,391.5C 404.243,381.221 405.577,370.888 406.5,360.5C 408.421,359.637 410.421,358.971 412.5,358.5C 413.752,364.916 414.752,371.416 415.5,378C 415.138,379.434 414.472,380.601 413.5,381.5C 410.272,384.04 407.105,386.707 404,389.5C 404.29,392.413 404.457,395.413 404.5,398.5C 388.338,399.52 372.338,401.52 356.5,404.5C 356.5,404.167 356.5,403.833 356.5,403.5C 357.509,400.473 357.509,397.473 356.5,394.5C 351.149,390.808 345.815,387.141 340.5,383.5C 339.544,382.341 338.544,381.174 337.5,380C 341.74,363.54 345.907,347.04 350,330.5C 351.734,328.549 353.901,327.549 356.5,327.5 Z"/></g>
<g><path style="opacity:1" fill="#262534" d="M 406.5,360.5 C 397.704,363.121 388.704,363.954 379.5,363C 374.39,361.609 369.723,359.442 365.5,356.5C 365.167,355.833 364.833,355.167 364.5,354.5C 364.201,352.396 364.534,350.396 365.5,348.5C 367.493,350.499 369.827,351.999 372.5,353C 384.2,356.22 395.867,356.054 407.5,352.5C 406.908,355.127 406.575,357.794 406.5,360.5 Z"/></g>
<g><path style="opacity:1" fill="#2f2e41" d="M 365.5,356.5 C 369.723,359.442 374.39,361.609 379.5,363C 388.704,363.954 397.704,363.121 406.5,360.5C 405.577,370.888 404.243,381.221 402.5,391.5C 390.15,392.752 377.817,394.086 365.5,395.5C 365.5,382.5 365.5,369.5 365.5,356.5 Z"/></g>
<g><path style="opacity:1" fill="#fbb4b4" d="M 413.5,381.5 C 416.319,392.444 418.986,403.444 421.5,414.5C 416.49,408.49 410.823,403.157 404.5,398.5C 404.457,395.413 404.29,392.413 404,389.5C 407.105,386.707 410.272,384.04 413.5,381.5 Z"/></g>
<g><path style="opacity:1" fill="#514f65" d="M 89.5,361.5 C 124.719,361.882 141.553,379.549 140,414.5C 135.395,434.105 123.229,445.938 103.5,450C 84.5878,451.96 69.7544,445.126 59,429.5C 46.4589,403.828 51.9589,382.995 75.5,367C 80.1587,364.842 84.8254,363.009 89.5,361.5 Z"/></g>
<g><path style="opacity:1" fill="#fcfcfc" d="M 119.5,440.5 C 116.734,437.917 113.734,435.417 110.5,433C 101.167,432.333 91.8333,432.333 82.5,433C 81.0692,433.465 79.9025,434.299 79,435.5C 78.4136,438.019 77.2469,440.019 75.5,441.5C 62.5202,433.397 55.5202,421.564 54.5,406C 57.1158,380.55 71.1158,366.717 96.5,364.5C 121.452,366.619 135.452,380.119 138.5,405C 138.29,420.261 131.956,432.095 119.5,440.5 Z"/></g>
<g><path style="opacity:1" fill="#fdb5b5" d="M 340.5,383.5 C 345.815,387.141 351.149,390.808 356.5,394.5C 357.509,397.473 357.509,400.473 356.5,403.5C 354.692,404.907 352.692,406.074 350.5,407C 334.941,408.154 319.607,409.987 304.5,412.5C 298.861,411.521 294.194,413.021 290.5,417C 288.323,418.202 285.989,418.702 283.5,418.5C 279.195,417.847 276.195,415.514 274.5,411.5C 273.822,402.844 277.822,398.177 286.5,397.5C 288.426,398.242 290.259,399.242 292,400.5C 302.724,397.93 313.224,394.93 323.5,391.5C 328.888,390.653 334.221,389.487 339.5,388C 340.337,386.989 340.67,385.822 340.5,384.5C 340.5,384.167 340.5,383.833 340.5,383.5 Z"/></g>
<g><path style="opacity:1" fill="#343245" d="M 113.5,414.5 C 112.833,412.833 112.167,411.167 111.5,409.5C 111.719,408.325 111.386,407.325 110.5,406.5C 109.088,407.806 107.421,408.64 105.5,409C 100.167,409.667 94.8333,409.667 89.5,409C 90.6721,408.581 91.6721,407.915 92.5,407C 90.1093,406.713 87.7759,406.213 85.5,405.5C 83.5475,407.337 82.5475,409.671 82.5,412.5C 82.8396,414.512 83.1729,416.512 83.5,418.5C 82.2101,417.942 81.3768,416.942 81,415.5C 78.9045,410.711 79.0711,406.044 81.5,401.5C 74.3852,402.522 72.2185,399.522 75,392.5C 77.5594,389.651 80.7261,388.817 84.5,390C 85.2489,391.734 85.7489,393.567 86,395.5C 90.5095,391.922 95.6762,390.588 101.5,391.5C 101.867,385.844 104.867,384.011 110.5,386C 117.48,390.382 117.146,394.049 109.5,397C 114.275,402.016 115.609,407.849 113.5,414.5 Z"/></g>
<g><path style="opacity:1" fill="#e5e5e5" d="M 240.5,383.5 C 244.12,385.453 247.12,388.119 249.5,391.5C 235.5,391.5 221.5,391.5 207.5,391.5C 207.5,389.167 207.5,386.833 207.5,384.5C 218.679,384.828 229.679,384.495 240.5,383.5 Z"/></g>
<g><path style="opacity:1" fill="#e5e5e5" d="M 272.5,384.5 C 295.167,384.5 317.833,384.5 340.5,384.5C 340.67,385.822 340.337,386.989 339.5,388C 334.221,389.487 328.888,390.653 323.5,391.5C 309.323,391.171 295.323,391.504 281.5,392.5C 278.474,389.805 275.474,387.138 272.5,384.5 Z"/></g>
<g><path style="opacity:1" fill="#fdfbfb" d="M 323.5,391.5 C 313.224,394.93 302.724,397.93 292,400.5C 290.259,399.242 288.426,398.242 286.5,397.5C 285.139,395.473 283.473,393.806 281.5,392.5C 295.323,391.504 309.323,391.171 323.5,391.5 Z"/></g>
<g><path style="opacity:0.99" fill="#2f2e41" d="M 404.5,398.5 C 410.823,403.157 416.49,408.49 421.5,414.5C 426.041,420.915 429.541,427.915 432,435.5C 435.805,457.026 440.305,478.359 445.5,499.5C 445.294,502.495 445.96,505.162 447.5,507.5C 455.639,547.03 463.973,586.53 472.5,626C 472.355,626.772 472.022,627.439 471.5,628C 468.487,628.502 465.487,629.002 462.5,629.5C 457.343,629.294 452.343,629.961 447.5,631.5C 445.712,631.971 443.878,632.304 442,632.5C 440.342,632.325 439.009,631.658 438,630.5C 425.922,589.437 413.756,548.437 401.5,507.5C 402.043,507.44 402.376,507.107 402.5,506.5C 401.67,503.984 400.67,501.65 399.5,499.5C 397.381,489.64 394.547,479.973 391,470.5C 387.658,479.691 384.825,489.024 382.5,498.5C 380.928,501.215 379.928,504.215 379.5,507.5C 366.976,549.239 354.143,590.906 341,632.5C 338.959,633.423 336.792,633.756 334.5,633.5C 329.731,632.111 324.731,631.444 319.5,631.5C 314.264,630.347 308.93,629.513 303.5,629C 312.594,588.455 322.594,547.955 333.5,507.5C 334.167,504.833 334.833,502.167 335.5,499.5C 341.101,479.762 346.101,459.762 350.5,439.5C 351.49,433.355 351.823,427.022 351.5,420.5C 353.457,415.36 355.124,410.027 356.5,404.5C 372.338,401.52 388.338,399.52 404.5,398.5 Z"/></g>
<g><path style="opacity:1" fill="#e4e4e4" d="M 262.5,401.5 C 265.526,404.195 268.526,406.862 271.5,409.5C 250.167,409.5 228.833,409.5 207.5,409.5C 207.5,407.167 207.5,404.833 207.5,402.5C 226.008,402.83 244.341,402.497 262.5,401.5 Z"/></g>
<g><path style="opacity:1" fill="#fab3b4" d="M 111.5,409.5 C 111.5,412.167 111.5,414.833 111.5,417.5C 106.495,426.89 99.1621,429.39 89.5,425C 86.5914,423.594 84.5914,421.428 83.5,418.5C 83.1729,416.512 82.8396,414.512 82.5,412.5C 82.5475,409.671 83.5475,407.337 85.5,405.5C 87.7759,406.213 90.1093,406.713 92.5,407C 91.6721,407.915 90.6721,408.581 89.5,409C 94.8333,409.667 100.167,409.667 105.5,409C 107.421,408.64 109.088,407.806 110.5,406.5C 111.386,407.325 111.719,408.325 111.5,409.5 Z"/></g>
<g><path style="opacity:1" fill="#fbfafa" d="M 356.5,403.5 C 356.5,403.833 356.5,404.167 356.5,404.5C 355.124,410.027 353.457,415.36 351.5,420.5C 339.5,420.5 327.5,420.5 315.5,420.5C 311.852,417.858 308.185,415.191 304.5,412.5C 319.607,409.987 334.941,408.154 350.5,407C 352.692,406.074 354.692,404.907 356.5,403.5 Z"/></g>
<g><path style="opacity:1" fill="#9a7c85" d="M 111.5,409.5 C 112.167,411.167 112.833,412.833 113.5,414.5C 113.068,415.71 112.401,416.71 111.5,417.5C 111.5,414.833 111.5,412.167 111.5,409.5 Z"/></g>
<g><path style="opacity:1" fill="#413f58" d="M 304.5,412.5 C 308.185,415.191 311.852,417.858 315.5,420.5C 317.098,422.698 318.431,425.031 319.5,427.5C 318.685,437.168 313.685,440.335 304.5,437C 300.625,433.619 296.625,430.453 292.5,427.5C 289.729,424.608 286.729,421.942 283.5,419.5C 283.5,419.167 283.5,418.833 283.5,418.5C 285.989,418.702 288.323,418.202 290.5,417C 294.194,413.021 298.861,411.521 304.5,412.5 Z"/></g>
<g><path style="opacity:1" fill="#e5e5e5" d="M 283.5,419.5 C 286.729,421.942 289.729,424.608 292.5,427.5C 264.167,427.5 235.833,427.5 207.5,427.5C 207.5,425.167 207.5,422.833 207.5,420.5C 233.005,420.831 258.339,420.498 283.5,419.5 Z"/></g>
<g><path style="opacity:1" fill="#e2e2e2" d="M 315.5,420.5 C 327.5,420.5 339.5,420.5 351.5,420.5C 351.823,427.022 351.49,433.355 350.5,439.5C 350.5,435.5 350.5,431.5 350.5,427.5C 340.167,427.5 329.833,427.5 319.5,427.5C 318.431,425.031 317.098,422.698 315.5,420.5 Z"/></g>
<g><path style="opacity:1" fill="#c9c8c9" d="M 119.5,440.5 C 109.924,447.112 99.257,449.279 87.5,447C 83.0505,445.939 79.0505,444.105 75.5,441.5C 77.2469,440.019 78.4136,438.019 79,435.5C 79.9025,434.299 81.0692,433.465 82.5,433C 91.8333,432.333 101.167,432.333 110.5,433C 113.734,435.417 116.734,437.917 119.5,440.5 Z"/></g>
<g><path style="opacity:1" fill="#f4f4f5" d="M 399.5,499.5 C 396.854,500.164 394.021,500.498 391,500.5C 387.748,500.481 384.915,499.814 382.5,498.5C 384.825,489.024 387.658,479.691 391,470.5C 394.547,479.973 397.381,489.64 399.5,499.5 Z"/></g>
<g><path style="opacity:1" fill="#dededf" d="M 382.5,498.5 C 384.915,499.814 387.748,500.481 391,500.5C 394.021,500.498 396.854,500.164 399.5,499.5C 400.67,501.65 401.67,503.984 402.5,506.5C 402.376,507.107 402.043,507.44 401.5,507.5C 394.167,507.5 386.833,507.5 379.5,507.5C 379.928,504.215 380.928,501.215 382.5,498.5 Z"/></g>
<g><path style="opacity:0.949" fill="#e7e7e7" d="M 561.5,656.5 C 560.833,656.5 560.167,656.5 559.5,656.5C 559.811,649.115 560.478,641.781 561.5,634.5C 560.746,631.223 560.246,627.89 560,624.5C 554.156,623.088 548.323,621.254 542.5,619C 535.065,612.977 530.565,605.144 529,595.5C 526.833,584.667 524.667,573.833 522.5,563C 522.833,562.167 523.167,561.333 523.5,560.5C 532.343,566.421 541.009,572.588 549.5,579C 563.655,590.627 567.988,605.127 562.5,622.5C 563.959,633.927 563.626,645.26 561.5,656.5 Z"/></g>
<g><path style="opacity:0.957" fill="#f8b1b2" d="M 462.5,629.5 C 462.5,633.5 462.5,637.5 462.5,641.5C 457.934,642.797 453.267,642.797 448.5,641.5C 448.658,638.098 448.324,634.764 447.5,631.5C 452.343,629.961 457.343,629.294 462.5,629.5 Z"/></g>
<g><path style="opacity:0.963" fill="#f9b2b2" d="M 319.5,631.5 C 324.731,631.444 329.731,632.111 334.5,633.5C 334.5,635.833 334.5,638.167 334.5,640.5C 329.934,641.797 325.267,641.797 320.5,640.5C 320.736,637.391 320.403,634.391 319.5,631.5 Z"/></g>
<g><path style="opacity:0.966" fill="#2e2c3f" d="M 320.5,640.5 C 325.267,641.797 329.934,641.797 334.5,640.5C 335.822,640.33 336.989,640.663 338,641.5C 338.499,646.489 338.666,651.489 338.5,656.5C 324.833,656.5 311.167,656.5 297.5,656.5C 298.034,648.134 302.367,642.967 310.5,641C 313.817,640.502 317.15,640.335 320.5,640.5 Z"/></g>
<g><path style="opacity:0.965" fill="#2e2d40" d="M 448.5,641.5 C 453.267,642.797 457.934,642.797 462.5,641.5C 463.5,641.5 464.5,641.5 465.5,641.5C 465.5,646.5 465.5,651.5 465.5,656.5C 452.167,656.5 438.833,656.5 425.5,656.5C 428.209,644.293 435.876,639.293 448.5,641.5 Z"/></g>
<g><path style="opacity:0.996" fill="#cacaca" d="M 297.5,656.5 C 311.167,656.5 324.833,656.5 338.5,656.5C 367.5,656.5 396.5,656.5 425.5,656.5C 438.833,656.5 452.167,656.5 465.5,656.5C 496.833,656.5 528.167,656.5 559.5,656.5C 560.167,656.5 560.833,656.5 561.5,656.5C 571.167,656.5 580.833,656.5 590.5,656.5C 590.5,657.167 590.5,657.833 590.5,658.5C 462.5,658.5 334.5,658.5 206.5,658.5C 236.482,656.508 266.815,655.841 297.5,656.5 Z"/></g>
</svg>
